<?xml version="1.0" standalone="yes"?>

<svg version="1.1" viewBox="0.0 0.0 1101.3989501312335 380.1391076115486" fill="none" stroke="none" stroke-linecap="square" stroke-miterlimit="10" xmlns="http://www.w3.org/2000/svg" xmlns:xlink="http://www.w3.org/1999/xlink"><clipPath id="p.0"><path d="m0 0l1101.3989 0l0 380.1391l-1101.3989 0l0 -380.1391z" clip-rule="nonzero"></path></clipPath><g clip-path="url(#p.0)"><path fill="#000000" fill-opacity="0.0" d="m0 0l1101.3989 0l0 380.1391l-1101.3989 0z" fill-rule="evenodd"></path><path fill="#000000" fill-opacity="0.0" d="m-100.552956 188.50528l0 0c0 -137.93202 111.81601 -249.74803 249.74805 -249.74803l0 0c66.23729 0 129.76167 26.312664 176.59853 73.149506c46.836823 46.836838 73.149506 110.36123 73.149506 176.59853l0 0c0 137.93204 -111.81601 249.74805 -249.74803 249.74805l0 0c-137.93204 0 -249.74805 -111.81601 -249.74805 -249.74805z" fill-rule="evenodd"></path><path stroke="#000000" stroke-width="4.0" stroke-linejoin="round" stroke-linecap="butt" d="m-100.552956 188.50528l0 0c0 -137.93202 111.81601 -249.74803 249.74805 -249.74803l0 0c66.23729 0 129.76167 26.312664 176.59853 73.149506c46.836823 46.836838 73.149506 110.36123 73.149506 176.59853l0 0c0 137.93204 -111.81601 249.74805 -249.74803 249.74805l0 0c-137.93204 0 -249.74805 -111.81601 -249.74805 -249.74805z" fill-rule="evenodd"></path><path fill="#000000" fill-opacity="0.0" d="m710.93884 188.50528l0 0c0 -137.93202 111.81598 -249.74803 249.74805 -249.74803l0 0c66.237305 0 129.76172 26.312664 176.59851 73.149506c46.836792 46.836838 73.149536 110.36123 73.149536 176.59853l0 0c0 137.93204 -111.81604 249.74805 -249.74805 249.74805l0 0c-137.93207 0 -249.74805 -111.81601 -249.74805 -249.74805z" fill-rule="evenodd"></path><path stroke="#000000" stroke-width="4.0" stroke-linejoin="round" stroke-linecap="butt" d="m710.93884 188.50528l0 0c0 -137.93202 111.81598 -249.74803 249.74805 -249.74803l0 0c66.237305 0 129.76172 26.312664 176.59851 73.149506c46.836792 46.836838 73.149536 110.36123 73.149536 176.59853l0 0c0 137.93204 -111.81604 249.74805 -249.74805 249.74805l0 0c-137.93207 0 -249.74805 -111.81601 -249.74805 -249.74805z" fill-rule="evenodd"></path><path fill="#cfe2f3" d="m141.62204 70.81628l0 0c0 -23.256844 18.853409 -42.110237 42.110245 -42.110237l0 0c11.168335 0 21.879227 4.4366016 29.776428 12.333803c7.8972015 7.8972015 12.333801 18.608105 12.333801 29.776436l0 0c0 23.256836 -18.853394 42.11023 -42.11023 42.11023l0 0c-23.256836 0 -42.110245 -18.853394 -42.110245 -42.11023z" fill-rule="evenodd"></path><path stroke="#000000" stroke-width="1.0" stroke-linejoin="round" stroke-linecap="butt" d="m141.62204 70.81628l0 0c0 -23.256844 18.853409 -42.110237 42.110245 -42.110237l0 0c11.168335 0 21.879227 4.4366016 29.776428 12.333803c7.8972015 7.8972015 12.333801 18.608105 12.333801 29.776436l0 0c0 23.256836 -18.853394 42.11023 -42.11023 42.11023l0 0c-23.256836 0 -42.110245 -18.853394 -42.110245 -42.11023z" fill-rule="evenodd"></path><path fill="#cfe2f3" d="m35.139107 280.11285l0 0c0 -23.256836 18.853397 -42.11023 42.110237 -42.11023l0 0c11.168327 0 21.879234 4.4365997 29.776436 12.333801c7.8972015 7.897217 12.333801 18.608093 12.333801 29.776428l0 0c0 23.256836 -18.853394 42.11023 -42.110237 42.11023l0 0c-23.25684 0 -42.110237 -18.853394 -42.110237 -42.11023z" fill-rule="evenodd"></path><path stroke="#000000" stroke-width="1.0" stroke-linejoin="round" stroke-linecap="butt" d="m35.139107 280.11285l0 0c0 -23.256836 18.853397 -42.11023 42.110237 -42.11023l0 0c11.168327 0 21.879234 4.4365997 29.776436 12.333801c7.8972015 7.897217 12.333801 18.608093 12.333801 29.776428l0 0c0 23.256836 -18.853394 42.11023 -42.110237 42.11023l0 0c-23.25684 0 -42.110237 -18.853394 -42.110237 -42.11023z" fill-rule="evenodd"></path><path fill="#cfe2f3" d="m238.69292 229.12862l0 0c0 -23.256851 18.853378 -42.110245 42.110245 -42.110245l0 0c11.168304 0 21.879211 4.4365997 29.776428 12.333801c7.8971863 7.8972015 12.333801 18.608109 12.333801 29.776443l0 0c0 23.256836 -18.853394 42.110214 -42.11023 42.110214l0 0c-23.256866 0 -42.110245 -18.853378 -42.110245 -42.110214z" fill-rule="evenodd"></path><path stroke="#000000" stroke-width="1.0" stroke-linejoin="round" stroke-linecap="butt" d="m238.69292 229.12862l0 0c0 -23.256851 18.853378 -42.110245 42.110245 -42.110245l0 0c11.168304 0 21.879211 4.4365997 29.776428 12.333801c7.8971863 7.8972015 12.333801 18.608109 12.333801 29.776443l0 0c0 23.256836 -18.853394 42.110214 -42.11023 42.110214l0 0c-23.256866 0 -42.110245 -18.853378 -42.110245 -42.110214z" fill-rule="evenodd"></path><path fill="#cfe2f3" d="m809.6982 70.81628l0 0c0 -23.256844 18.853394 -42.110237 42.11023 -42.110237l0 0c11.168335 0 21.879211 4.4366016 29.776428 12.333803c7.897217 7.8972015 12.333801 18.608105 12.333801 29.776436l0 0c0 23.256836 -18.853394 42.11023 -42.11023 42.11023l0 0c-23.256836 0 -42.11023 -18.853394 -42.11023 -42.11023z" fill-rule="evenodd"></path><path stroke="#000000" stroke-width="1.0" stroke-linejoin="round" stroke-linecap="butt" d="m809.6982 70.81628l0 0c0 -23.256844 18.853394 -42.110237 42.11023 -42.110237l0 0c11.168335 0 21.879211 4.4366016 29.776428 12.333803c7.897217 7.8972015 12.333801 18.608105 12.333801 29.776436l0 0c0 23.256836 -18.853394 42.11023 -42.11023 42.11023l0 0c-23.256836 0 -42.11023 -18.853394 -42.11023 -42.11023z" fill-rule="evenodd"></path><path fill="#cfe2f3" d="m841.0079 247.5748l0 0c0 -23.256836 18.853394 -42.11023 42.11023 -42.11023l0 0c11.168335 0 21.879211 4.4365997 29.776428 12.333801c7.897217 7.8972015 12.333801 18.608109 12.333801 29.776428l0 0c0 23.256836 -18.853394 42.11023 -42.11023 42.11023l0 0c-23.256836 0 -42.11023 -18.853394 -42.11023 -42.11023z" fill-rule="evenodd"></path><path stroke="#000000" stroke-width="1.0" stroke-linejoin="round" stroke-linecap="butt" d="m841.0079 247.5748l0 0c0 -23.256836 18.853394 -42.11023 42.11023 -42.11023l0 0c11.168335 0 21.879211 4.4365997 29.776428 12.333801c7.897217 7.8972015 12.333801 18.608109 12.333801 29.776428l0 0c0 23.256836 -18.853394 42.11023 -42.11023 42.11023l0 0c-23.256836 0 -42.11023 -18.853394 -42.11023 -42.11023z" fill-rule="evenodd"></path><path fill="#cfe2f3" d="m966.0971 125.78215l0 0c0 -23.256836 18.853394 -42.110237 42.11023 -42.110237l0 0c11.168335 0 21.879211 4.4366074 29.776428 12.333809c7.897217 7.8972015 12.333862 18.6081 12.333862 29.776428l0 0c0 23.256836 -18.853394 42.110245 -42.11029 42.110245l0 0c-23.256836 0 -42.11023 -18.853409 -42.11023 -42.110245z" fill-rule="evenodd"></path><path stroke="#000000" stroke-width="1.0" stroke-linejoin="round" stroke-linecap="butt" d="m966.0971 125.78215l0 0c0 -23.256836 18.853394 -42.110237 42.11023 -42.110237l0 0c11.168335 0 21.879211 4.4366074 29.776428 12.333809c7.897217 7.8972015 12.333862 18.6081 12.333862 29.776428l0 0c0 23.256836 -18.853394 42.110245 -42.11029 42.110245l0 0c-23.256836 0 -42.11023 -18.853409 -42.11023 -42.110245z" fill-rule="evenodd"></path><path fill="#cfe2f3" d="m1050.3176 364.33334l0 0c0 -23.256866 18.853394 -42.11026 42.11023 -42.11026l0 0c11.168335 0 21.87915 4.436615 29.776367 12.333801c7.897217 7.897217 12.333862 18.608124 12.333862 29.776459l0 0c0 23.256836 -18.853394 42.11023 -42.11023 42.11023l0 0c-23.256836 0 -42.11023 -18.853394 -42.11023 -42.11023z" fill-rule="evenodd"></path><path stroke="#000000" stroke-width="1.0" stroke-linejoin="round" stroke-linecap="butt" d="m1050.3176 364.33334l0 0c0 -23.256866 18.853394 -42.11026 42.11023 -42.11026l0 0c11.168335 0 21.87915 4.436615 29.776367 12.333801c7.897217 7.897217 12.333862 18.608124 12.333862 29.776459l0 0c0 23.256836 -18.853394 42.11023 -42.11023 42.11023l0 0c-23.256836 0 -42.11023 -18.853394 -42.11023 -42.11023z" fill-rule="evenodd"></path><path fill="#cfe2f3" d="m-30.299213 41.56168l0 0c0 -23.256842 18.853395 -42.110237 42.110237 -42.110237l0 0c11.168329 0 21.87923 4.4366016 29.776432 12.333802c7.8972015 7.8972015 12.333805 18.608105 12.333805 29.776434l0 0c0 23.25684 -18.853397 42.110233 -42.110237 42.110233l0 0c-23.256842 0 -42.110237 -18.853394 -42.110237 -42.110233z" fill-rule="evenodd"></path><path stroke="#000000" stroke-width="1.0" stroke-linejoin="round" stroke-linecap="butt" d="m-30.299213 41.56168l0 0c0 -23.256842 18.853395 -42.110237 42.110237 -42.110237l0 0c11.168329 0 21.87923 4.4366016 29.776432 12.333802c7.8972015 7.8972015 12.333805 18.608105 12.333805 29.776434l0 0c0 23.25684 -18.853397 42.110233 -42.110237 42.110233l0 0c-23.256842 0 -42.110237 -18.853394 -42.110237 -42.110233z" fill-rule="evenodd"></path><path fill="#000000" fill-opacity="0.0" d="m53.92126 41.56168l87.71654 29.259846" fill-rule="evenodd"></path><path stroke="#000000" stroke-width="2.0" stroke-linejoin="round" stroke-linecap="butt" d="m53.92126 41.56168l87.71654 29.259846" fill-rule="evenodd"></path><path fill="#000000" fill-opacity="0.0" d="m41.587456 71.33811l35.65354 166.67715" fill-rule="evenodd"></path><path stroke="#000000" stroke-width="2.0" stroke-linejoin="round" stroke-linecap="butt" d="m41.587456 71.33811l35.65354 166.67715" fill-rule="evenodd"></path><path fill="#000000" fill-opacity="0.0" d="m119.35958 280.11285l119.338585 -50.992126" fill-rule="evenodd"></path><path stroke="#000000" stroke-width="2.0" stroke-linejoin="round" stroke-linecap="butt" d="m119.35958 280.11285l119.338585 -50.992126" fill-rule="evenodd"></path><path fill="#000000" fill-opacity="0.0" d="m322.89764 229.1181l518.1102 18.456696" fill-rule="evenodd"></path><path stroke="#000000" stroke-width="2.0" stroke-linejoin="round" stroke-linecap="butt" d="m322.89764 229.1181l518.1102 18.456696" fill-rule="evenodd"></path><path fill="#000000" fill-opacity="0.0" d="m883.1181 205.46457l-31.307068 -92.53544" fill-rule="evenodd"></path><path stroke="#000000" stroke-width="2.0" stroke-linejoin="round" stroke-linecap="butt" d="m883.1181 205.46457l-31.307068 -92.53544" fill-rule="evenodd"></path><path fill="#000000" fill-opacity="0.0" d="m893.91864 70.81628l84.50391 25.196846" fill-rule="evenodd"></path><path stroke="#000000" stroke-width="2.0" stroke-linejoin="round" stroke-linecap="butt" d="m893.91864 70.81628l84.50391 25.196846" fill-rule="evenodd"></path><path fill="#000000" fill-opacity="0.0" d="m1008.20734 167.8924l84.22052 154.33069" fill-rule="evenodd"></path><path stroke="#000000" stroke-width="2.0" stroke-linejoin="round" stroke-linecap="butt" d="m1008.20734 167.8924l84.22052 154.33069" fill-rule="evenodd"></path><path fill="#b6d7a8" d="m547.6097 84.984215l22.059143 84.17423l25.456726 -6.6692963l-37.570984 64.25096l-64.2558 -37.57379l25.456665 -6.6692963l-22.059174 -84.174225z" fill-rule="evenodd"></path><path fill="#000000" fill-opacity="0.0" d="m52.007446 333.09583l233.48032 0l0 50.992126l-233.48032 0z" fill-rule="evenodd"></path><path fill="#000000" d="m124.05229 360.21396l2.296875 -12.140625l3.5 0l-3.78125 17.0625l-3.53125 0l-2.78125 -11.421875l-2.78125 11.421875l-3.53125 0l-3.796875 -17.0625l3.515625 0l2.296875 12.109375l2.8125 -12.109375l2.984375 0l2.796875 12.140625zm13.316406 5.15625q-2.796875 0 -4.546875 -1.703125q-1.75 -1.71875 -1.75 -4.5625l0 -0.328125q0 -1.921875 0.734375 -3.421875q0.75 -1.5 2.09375 -2.3125q1.359375 -0.828125 3.09375 -0.828125q2.59375 0 4.09375 1.640625q1.5 1.640625 1.5 4.65625l0 1.390625l-8.078125 0q0.15625 1.234375 0.984375 1.984375q0.828125 0.75 2.09375 0.75q1.953125 0 3.0625 -1.421875l1.65625 1.875q-0.75 1.078125 -2.0625 1.6875q-1.296875 0.59375 -2.875 0.59375zm-0.390625 -10.40625q-1.0 0 -1.640625 0.6875q-0.625 0.671875 -0.796875 1.9375l4.71875 0l0 -0.265625q-0.03125 -1.125 -0.625 -1.734375q-0.578125 -0.625 -1.65625 -0.625zm14.878906 10.171875q-0.234375 -0.453125 -0.34375 -1.140625q-1.234375 1.375 -3.203125 1.375q-1.859375 0 -3.09375 -1.078125q-1.21875 -1.078125 -1.21875 -2.71875q0 -2.015625 1.484375 -3.09375q1.5 -1.078125 4.328125 -1.09375l1.5625 0l0 -0.71875q0 -0.890625 -0.453125 -1.40625q-0.453125 -0.53125 -1.421875 -0.53125q-0.859375 0 -1.34375 0.40625q-0.484375 0.40625 -0.484375 1.125l-3.390625 0q0 -1.09375 0.671875 -2.03125q0.6875 -0.9375 1.921875 -1.46875q1.25 -0.546875 2.796875 -0.546875q2.34375 0 3.71875 1.1875q1.375 1.171875 1.375 3.3125l0 5.484375q0.015625 1.8125 0.515625 2.734375l0 0.203125l-3.421875 0zm-2.8125 -2.359375q0.75 0 1.375 -0.328125q0.640625 -0.34375 0.953125 -0.90625l0 -2.171875l-1.265625 0q-2.546875 0 -2.703125 1.75l-0.015625 0.203125q0 0.640625 0.4375 1.046875q0.453125 0.40625 1.21875 0.40625zm13.0703125 -1.78125l2.359375 -8.546875l3.53125 0l-4.265625 12.6875l-3.234375 0l-4.28125 -12.6875l3.53125 0l2.359375 8.546875zm10.957031 4.140625l-3.390625 0l0 -12.6875l3.390625 0l0 12.6875zm-3.59375 -15.96875q0 -0.75 0.5 -1.234375q0.515625 -0.5 1.390625 -0.5q0.875 0 1.390625 0.5q0.515625 0.484375 0.515625 1.234375q0 0.78125 -0.53125 1.28125q-0.515625 0.484375 -1.375 0.484375q-0.84375 0 -1.375 -0.484375q-0.515625 -0.5 -0.515625 -1.28125zm13.738281 15.96875q-0.234375 -0.453125 -0.34375 -1.140625q-1.234375 1.375 -3.203125 1.375q-1.859375 0 -3.09375 -1.078125q-1.21875 -1.078125 -1.21875 -2.71875q0 -2.015625 1.484375 -3.09375q1.5 -1.078125 4.328125 -1.09375l1.5625 0l0 -0.71875q0 -0.890625 -0.453125 -1.40625q-0.453125 -0.53125 -1.421875 -0.53125q-0.859375 0 -1.34375 0.40625q-0.484375 0.40625 -0.484375 1.125l-3.390625 0q0 -1.09375 0.671875 -2.03125q0.6875 -0.9375 1.921875 -1.46875q1.25 -0.546875 2.796875 -0.546875q2.34375 0 3.71875 1.1875q1.375 1.171875 1.375 3.3125l0 5.484375q0.015625 1.8125 0.515625 2.734375l0 0.203125l-3.421875 0zm-2.8125 -2.359375q0.75 0 1.375 -0.328125q0.640625 -0.34375 0.953125 -0.90625l0 -2.171875l-1.265625 0q-2.546875 0 -2.703125 1.75l-0.015625 0.203125q0 0.640625 0.4375 1.046875q0.453125 0.40625 1.21875 0.40625zm12.3828125 -13.4375l0 3.109375l2.171875 0l0 2.484375l-2.171875 0l0 6.328125q0 0.703125 0.265625 1.015625q0.265625 0.296875 1.03125 0.296875q0.5625 0 1.0 -0.078125l0 2.5625q-1.0 0.3125 -2.046875 0.3125q-3.5625 0 -3.640625 -3.59375l0 -6.84375l-1.84375 0l0 -2.484375l1.84375 0l0 -3.109375l3.390625 0zm9.890625 16.03125q-2.796875 0 -4.546875 -1.703125q-1.75 -1.71875 -1.75 -4.5625l0 -0.328125q0 -1.921875 0.734375 -3.421875q0.75 -1.5 2.09375 -2.3125q1.359375 -0.828125 3.09375 -0.828125q2.59375 0 4.09375 1.640625q1.5 1.640625 1.5 4.65625l0 1.390625l-8.078125 0q0.15625 1.234375 0.984375 1.984375q0.828125 0.75 2.09375 0.75q1.953125 0 3.0625 -1.421875l1.65625 1.875q-0.75 1.078125 -2.0625 1.6875q-1.296875 0.59375 -2.875 0.59375zm-0.390625 -10.40625q-1.0 0 -1.640625 0.6875q-0.625 0.671875 -0.796875 1.9375l4.71875 0l0 -0.265625q-0.03125 -1.125 -0.625 -1.734375q-0.578125 -0.625 -1.65625 -0.625zm21.589844 10.171875l-3.390625 0l0 -13.0625l-4.046875 1.265625l0 -2.765625l7.078125 -2.53125l0.359375 0l0 17.09375z" fill-rule="nonzero"></path><path fill="#000000" fill-opacity="0.0" d="m810.56604 321.61295l233.48022 0l0 50.992126l-233.48022 0z" fill-rule="evenodd"></path><path fill="#000000" d="m882.61084 348.73108l2.296875 -12.140625l3.5 0l-3.78125 17.0625l-3.53125 0l-2.78125 -11.421875l-2.78125 11.421875l-3.53125 0l-3.796875 -17.0625l3.515625 0l2.296875 12.109375l2.8125 -12.109375l2.984375 0l2.796875 12.140625zm13.316406 5.15625q-2.796875 0 -4.546875 -1.703125q-1.75 -1.71875 -1.75 -4.5625l0 -0.328125q0 -1.921875 0.734375 -3.421875q0.75 -1.5 2.09375 -2.3125q1.359375 -0.828125 3.09375 -0.828125q2.59375 0 4.09375 1.640625q1.5 1.640625 1.5 4.65625l0 1.390625l-8.078125 0q0.15625 1.234375 0.984375 1.984375q0.828125 0.75 2.09375 0.75q1.953125 0 3.0625 -1.421875l1.65625 1.875q-0.75 1.078125 -2.0625 1.6875q-1.296875 0.59375 -2.875 0.59375zm-0.390625 -10.40625q-1.0 0 -1.640625 0.6875q-0.625 0.671875 -0.796875 1.9375l4.71875 0l0 -0.265625q-0.03125 -1.125 -0.625 -1.734375q-0.578125 -0.625 -1.65625 -0.625zm14.878906 10.171875q-0.234375 -0.453125 -0.34375 -1.140625q-1.234375 1.375 -3.203125 1.375q-1.859375 0 -3.09375 -1.078125q-1.21875 -1.078125 -1.21875 -2.71875q0 -2.015625 1.484375 -3.09375q1.5 -1.078125 4.328125 -1.09375l1.5625 0l0 -0.71875q0 -0.890625 -0.453125 -1.40625q-0.453125 -0.53125 -1.421875 -0.53125q-0.859375 0 -1.34375 0.40625q-0.484375 0.40625 -0.484375 1.125l-3.390625 0q0 -1.09375 0.671875 -2.03125q0.6875 -0.9375 1.921875 -1.46875q1.25 -0.546875 2.796875 -0.546875q2.34375 0 3.71875 1.1875q1.375 1.171875 1.375 3.3125l0 5.484375q0.015625 1.8125 0.515625 2.734375l0 0.203125l-3.421875 0zm-2.8125 -2.359375q0.75 0 1.375 -0.328125q0.640625 -0.34375 0.953125 -0.90625l0 -2.171875l-1.265625 0q-2.546875 0 -2.703125 1.75l-0.015625 0.203125q0 0.640625 0.4375 1.046875q0.453125 0.40625 1.21875 0.40625zm13.0703125 -1.78125l2.359375 -8.546875l3.53125 0l-4.265625 12.6875l-3.234375 0l-4.28125 -12.6875l3.53125 0l2.359375 8.546875zm10.957031 4.140625l-3.390625 0l0 -12.6875l3.390625 0l0 12.6875zm-3.59375 -15.96875q0 -0.75 0.5 -1.234375q0.515625 -0.5 1.390625 -0.5q0.875 0 1.390625 0.5q0.515625 0.484375 0.515625 1.234375q0 0.78125 -0.53125 1.28125q-0.515625 0.484375 -1.375 0.484375q-0.84375 0 -1.375 -0.484375q-0.515625 -0.5 -0.515625 -1.28125zm13.738281 15.96875q-0.234375 -0.453125 -0.34375 -1.140625q-1.234375 1.375 -3.203125 1.375q-1.859375 0 -3.09375 -1.078125q-1.21875 -1.078125 -1.21875 -2.71875q0 -2.015625 1.484375 -3.09375q1.5 -1.078125 4.328125 -1.09375l1.5625 0l0 -0.71875q0 -0.890625 -0.453125 -1.40625q-0.453125 -0.53125 -1.421875 -0.53125q-0.859375 0 -1.34375 0.40625q-0.484375 0.40625 -0.484375 1.125l-3.390625 0q0 -1.09375 0.671875 -2.03125q0.6875 -0.9375 1.921875 -1.46875q1.25 -0.546875 2.796875 -0.546875q2.34375 0 3.71875 1.1875q1.375 1.171875 1.375 3.3125l0 5.484375q0.015625 1.8125 0.515625 2.734375l0 0.203125l-3.421875 0zm-2.8125 -2.359375q0.75 0 1.375 -0.328125q0.640625 -0.34375 0.953125 -0.90625l0 -2.171875l-1.265625 0q-2.546875 0 -2.703125 1.75l-0.015625 0.203125q0 0.640625 0.4375 1.046875q0.453125 0.40625 1.21875 0.40625zm12.3828125 -13.4375l0 3.109375l2.171875 0l0 2.484375l-2.171875 0l0 6.328125q0 0.703125 0.265625 1.015625q0.265625 0.296875 1.03125 0.296875q0.5625 0 1.0 -0.078125l0 2.5625q-1.0 0.3125 -2.046875 0.3125q-3.5625 0 -3.640625 -3.59375l0 -6.84375l-1.84375 0l0 -2.484375l1.84375 0l0 -3.109375l3.390625 0zm9.890625 16.03125q-2.796875 0 -4.546875 -1.703125q-1.75 -1.71875 -1.75 -4.5625l0 -0.328125q0 -1.921875 0.734375 -3.421875q0.75 -1.5 2.09375 -2.3125q1.359375 -0.828125 3.09375 -0.828125q2.59375 0 4.09375 1.640625q1.5 1.640625 1.5 4.65625l0 1.390625l-8.078125 0q0.15625 1.234375 0.984375 1.984375q0.828125 0.75 2.09375 0.75q1.953125 0 3.0625 -1.421875l1.65625 1.875q-0.75 1.078125 -2.0625 1.6875q-1.296875 0.59375 -2.875 0.59375zm-0.390625 -10.40625q-1.0 0 -1.640625 0.6875q-0.625 0.671875 -0.796875 1.9375l4.71875 0l0 -0.265625q-0.03125 -1.125 -0.625 -1.734375q-0.578125 -0.625 -1.65625 -0.625zm25.058594 10.171875l-11.703125 0l0 -2.328125l5.53125 -5.875q1.125 -1.25 1.671875 -2.171875q0.546875 -0.921875 0.546875 -1.75q0 -1.140625 -0.578125 -1.78125q-0.5625 -0.65625 -1.640625 -0.65625q-1.140625 0 -1.8125 0.796875q-0.65625 0.78125 -0.65625 2.0625l-3.390625 0q0 -1.546875 0.734375 -2.828125q0.75 -1.296875 2.109375 -2.03125q1.359375 -0.734375 3.078125 -0.734375q2.640625 0 4.09375 1.265625q1.46875 1.265625 1.46875 3.578125q0 1.265625 -0.65625 2.578125q-0.65625 1.3125 -2.25 3.046875l-3.890625 4.09375l7.34375 0l0 2.734375z" fill-rule="nonzero"></path></g></svg>

